<?xml version="1.0" standalone="no"?>
<!DOCTYPE svg PUBLIC "-//W3C//DTD SVG 20010904//EN"
 "http://www.w3.org/TR/2001/REC-SVG-20010904/DTD/svg10.dtd">
<svg version="1.0" xmlns="http://www.w3.org/2000/svg"
 width="700.000000pt" height="700.000000pt" viewBox="0 0 700.000000 700.000000"
 preserveAspectRatio="xMidYMid meet">
<metadata>
Created by potrace 1.14, written by Peter Selinger 2001-2017
</metadata>
<g transform="translate(0.000000,700.000000) scale(0.100000,-0.100000)"
fill="#000000" stroke="none">
<path d="M5741 6401 c-74 -20 -161 -105 -182 -177 -59 -205 83 -399 287 -389
213 10 343 237 243 426 -66 124 -206 180 -348 140z"/>
<path d="M3360 5828 c-101 -6 -139 -10 -239 -24 -164 -22 -353 -71 -541 -141
-80 -30 -306 -136 -375 -176 -534 -310 -933 -778 -1151 -1351 -56 -145 -126
-410 -140 -526 -2 -19 -6 -44 -8 -55 -24 -109 -25 -540 -2 -675 2 -14 10 -59
16 -100 23 -147 90 -398 135 -505 54 -131 106 -244 148 -320 56 -103 185 -301
228 -349 l28 -33 -140 -139 c-421 -415 -403 -396 -423 -453 -41 -117 -16 -225
73 -312 95 -93 -18 -86 1451 -83 707 1 1308 5 1335 8 77 9 185 26 235 36 25 6
56 12 70 14 14 2 68 15 120 29 350 94 686 266 976 499 137 111 335 315 429
443 16 22 32 42 35 45 20 16 153 232 206 335 92 176 187 425 219 569 67 310
73 387 35 474 -30 70 -101 133 -175 157 -175 55 -356 -63 -380 -248 -9 -75
-41 -233 -59 -292 -167 -565 -537 -1014 -1046 -1269 -246 -123 -469 -186 -751
-212 -56 -5 -1734 -10 -1783 -5 -5 1 42 54 105 118 102 104 117 125 133 177
23 71 17 156 -13 219 -11 23 -46 69 -78 102 -521 547 -705 1312 -486 2025 136
441 426 833 808 1089 182 122 398 221 598 276 107 29 115 31 202 45 33 5 76
12 95 16 59 10 391 13 465 3 289 -37 476 -94 725 -223 112 -58 117 -60 195
-60 93 -1 151 21 209 82 58 59 80 115 80 202 1 90 -23 150 -82 207 -37 36
-220 137 -322 178 -249 99 -424 148 -675 186 -52 8 -139 14 -335 22 -25 1 -92
-1 -150 -5z"/>
<path d="M5725 5520 c-61 -24 -122 -82 -156 -147 l-24 -48 0 -660 0 -660 23
-42 c35 -66 79 -110 140 -140 147 -72 323 -7 393 144 22 48 22 52 23 678 2
664 1 688 -44 760 -71 115 -225 165 -355 115z"/>
</g>
</svg>
